<svg width="100" height="102" viewBox="0 0 100 102" fill="none" xmlns="http://www.w3.org/2000/svg">
<rect y="2" width="100" height="100" fill="black"/>
<path d="M19.1294 77.1595C19.1981 77.2884 19.2879 77.3557 19.3825 77.3971C19.8089 77.6152 19.9344 77.7246 20.7417 78.0294C20.6077 78.0537 20.4858 78.0651 20.359 78.2791C20.2962 78.3925 20.2538 78.5377 20.2373 78.6957C20.2208 78.8537 20.231 79.0171 20.2666 79.1644C20.3037 79.3832 20.4153 79.5065 20.5037 79.6548C20.9935 80.4039 22.1887 80.6714 23.0817 81.0006C24.3462 81.4626 25.6115 81.9345 26.8934 82.2052C27.9319 83.1464 30.4774 83.3661 31.5257 83.4537C33.067 83.6312 34.6101 83.7261 36.1536 83.7585C41.5579 84.2741 46.9779 83.7998 52.3871 83.825C64.5303 82.5473 57.3762 83.2461 68.2036 81.5672C70.27 81.3905 72.3354 81.1749 74.3969 80.8498C74.9501 80.759 75.8154 80.6552 75.9453 80.545C76.0935 80.4509 76.1918 80.1931 76.2141 79.9151C81.7274 79.2835 81.6224 79.333 81.726 79.2341C81.931 79.1036 82.043 78.6553 81.9845 78.2775C81.9578 78.1073 81.9014 77.9573 81.8238 77.8501C81.7462 77.7428 81.6516 77.684 81.5541 77.6824C79.4605 77.6832 80.0544 77.4571 76.9526 77.9629L77.441 77.8113C77.5299 77.7497 77.6232 77.676 77.6728 77.5211C77.8599 77.1385 77.7683 76.3878 77.421 76.2427C77.27 76.0295 77.1343 76.0805 76.7901 76.0716C76.5865 76.0149 76.3824 75.963 76.1775 75.9249C77.7241 75.492 78.2532 75.2739 78.6774 74.9269C78.7859 74.8369 78.8841 74.7129 78.9872 74.6051C79.6324 74.0368 79.1364 72.58 78.622 73.1167C78.501 73.2326 78.3898 73.3801 78.2675 73.4912C77.7755 73.8293 77.2482 73.9517 76.7334 74.1276C75.1032 74.6327 73.8218 74.8953 72.0332 75.2009C70.2485 75.4798 68.4639 75.7822 66.6748 75.9387C61.6344 76.4778 56.589 76.8077 51.5424 77.0688C45.3174 77.4157 48.3147 77.2909 40.8828 77.3792C34.0908 77.3809 36.1849 77.4473 31.5378 77.1247C30.4287 77.0517 30.0528 76.9698 28.6003 76.7493C27.8324 76.6018 26.6675 76.1778 25.6102 75.9978C25.4222 75.9849 25.2226 75.8852 25.0458 76.0278C24.9733 76.0779 24.91 76.1636 24.8629 76.2755C24.8158 76.3874 24.7868 76.5209 24.7793 76.661L24.7779 76.6821C21.7168 76.0278 20.8948 75.9768 19.445 75.7757C19.3854 75.7711 19.3261 75.7951 19.2732 75.8454C19.2006 75.8953 19.1372 75.981 19.0901 76.0929C19.043 76.2048 19.0141 76.3384 19.0066 76.4786C18.9803 76.7275 19.0352 76.9771 19.1294 77.1595Z" fill="#3B82F6"/>
<path d="M52.024 24.632C54.7973 24.632 57.144 25.1013 59.064 26.04C61.0267 26.9787 62.008 28.1733 62.008 29.624C62.008 30.264 61.8373 30.8187 61.496 31.288C61.1973 31.7573 60.728 31.992 60.088 31.992C59.4907 31.992 58.168 31.5227 56.12 30.584C54.072 29.6027 52.1947 29.112 50.488 29.112C48.824 29.112 47.096 29.6453 45.304 30.712C43.512 31.7787 42.616 33.08 42.616 34.616C42.616 36.7067 43.704 38.2427 45.88 39.224C47.5013 39.9493 49.8267 40.6107 52.856 41.208C55.8853 41.7627 58.36 42.936 60.28 44.728C62.2 46.4773 63.16 49.144 63.16 52.728C63.16 58.1893 61.5173 62.2213 58.232 64.824C56.3973 66.2747 53.7947 67 50.424 67C47.096 67 43.768 66.0827 40.44 64.248C38.264 63.096 37.176 61.944 37.176 60.792C37.176 60.3653 37.3467 59.896 37.688 59.384C38.072 58.872 38.584 58.4453 39.224 58.104C39.864 57.7627 40.44 57.72 40.952 57.976C41.5067 58.1893 42.3813 58.5947 43.576 59.192C44.7707 59.7893 45.6453 60.1947 46.2 60.408C47.992 61.0907 49.6773 61.432 51.256 61.432C52.8347 61.432 54.3493 60.664 55.8 59.128C57.2933 57.5493 58.04 55.6293 58.04 53.368C58.04 50.3813 56.5467 48.2907 53.56 47.096C52.1093 46.4987 50.4667 46.0507 48.632 45.752C44.8347 45.0693 41.976 43.9387 40.056 42.36C38.136 40.7387 37.176 38.3067 37.176 35.064C37.176 31.8213 38.5627 29.2827 41.336 27.448C44.1093 25.5707 47.672 24.632 52.024 24.632Z" fill="white"/>
</svg>
