<svg width="65" height="24" viewBox="0 0 65 24" fill="none" xmlns="http://www.w3.org/2000/svg">
<path d="M12.32 1.56957C13.1867 1.56957 13.92 1.71624 14.52 2.00957C15.1333 2.3029 15.44 2.67624 15.44 3.12957C15.44 3.32957 15.3867 3.5029 15.28 3.64957C15.1867 3.79624 15.04 3.86957 14.84 3.86957C14.6533 3.86957 14.24 3.7229 13.6 3.42957C12.96 3.1229 12.3733 2.96957 11.84 2.96957C11.32 2.96957 10.78 3.13624 10.22 3.46957C9.66 3.8029 9.38 4.20957 9.38 4.68957C9.38 5.3429 9.72 5.8229 10.4 6.12957C10.9067 6.35624 11.6333 6.5629 12.58 6.74957C13.5267 6.9229 14.3 7.28957 14.9 7.84957C15.5 8.39624 15.8 9.22957 15.8 10.3496C15.8 12.0562 15.2867 13.3162 14.26 14.1296C13.6867 14.5829 12.8733 14.8096 11.82 14.8096C10.78 14.8096 9.74 14.5229 8.7 13.9496C8.02 13.5896 7.68 13.2296 7.68 12.8696C7.68 12.7362 7.73333 12.5896 7.84 12.4296C7.96 12.2696 8.12 12.1362 8.32 12.0296C8.52 11.9229 8.7 11.9096 8.86 11.9896C9.03333 12.0562 9.30667 12.1829 9.68 12.3696C10.0533 12.5562 10.3267 12.6829 10.5 12.7496C11.06 12.9629 11.5867 13.0696 12.08 13.0696C12.5733 13.0696 13.0467 12.8296 13.5 12.3496C13.9667 11.8562 14.2 11.2562 14.2 10.5496C14.2 9.61624 13.7333 8.9629 12.8 8.58957C12.3467 8.4029 11.8333 8.2629 11.26 8.16957C10.0733 7.95624 9.18 7.6029 8.58 7.10957C7.98 6.6029 7.68 5.8429 7.68 4.82957C7.68 3.81624 8.11333 3.0229 8.98 2.44957C9.84667 1.8629 10.96 1.56957 12.32 1.56957ZM19.0797 8.32957L19.2397 13.0496C19.2397 13.6362 19.213 13.9762 19.1597 14.0696C19.133 14.3096 19.053 14.4962 18.9197 14.6296C18.7997 14.7629 18.5597 14.8296 18.1997 14.8296C18.0264 14.8296 17.8864 14.7229 17.7797 14.5096C17.673 14.2829 17.613 14.0296 17.5997 13.7496C17.5064 11.4029 17.3797 9.2029 17.2197 7.14957C17.073 5.0829 16.9997 3.1629 16.9997 1.38957C16.9997 1.10957 17.093 0.88957 17.2797 0.729569C17.4664 0.56957 17.6864 0.48957 17.9397 0.48957C18.313 0.48957 18.533 0.80957 18.5997 1.44957C18.6797 2.08957 18.7264 2.88957 18.7397 3.84957C18.7664 4.80957 18.793 5.50957 18.8197 5.94957C19.4864 5.6029 20.153 5.42957 20.8197 5.42957C22.3664 5.42957 23.3464 6.10957 23.7597 7.46957C23.9997 8.2429 24.1197 9.23624 24.1197 10.4496C24.1197 10.8496 24.0797 11.4829 23.9997 12.3496C23.933 13.2029 23.893 13.7562 23.8797 14.0096C23.8664 14.2629 23.753 14.4629 23.5397 14.6096C23.3397 14.7429 23.1197 14.8096 22.8797 14.8096C22.5064 14.8096 22.3197 14.6096 22.3197 14.2096L22.4597 10.7296C22.4597 10.4362 22.4464 9.94957 22.4197 9.26957C22.393 8.58957 22.253 8.04957 21.9997 7.64957C21.7597 7.24957 21.333 7.04957 20.7197 7.04957C19.6264 7.04957 19.0797 7.47624 19.0797 8.32957ZM28.8781 5.48957C29.8381 5.48957 30.6248 5.94957 31.2381 6.86957C31.8648 7.78957 32.1781 8.89624 32.1781 10.1896C32.1781 11.4696 31.8581 12.5629 31.2181 13.4696C30.5915 14.3762 29.7515 14.8296 28.6981 14.8296C27.6581 14.8296 26.8181 14.3696 26.1781 13.4496C25.5381 12.5162 25.2181 11.4829 25.2181 10.3496C25.2181 8.89624 25.5115 7.73624 26.0981 6.86957C26.7248 5.94957 27.6515 5.48957 28.8781 5.48957ZM28.6381 7.12957C28.0781 7.12957 27.6181 7.4229 27.2581 8.00957C26.8981 8.59624 26.7181 9.21624 26.7181 9.86957C26.7181 10.8829 26.9181 11.6562 27.3181 12.1896C27.7181 12.7229 28.1715 12.9896 28.6781 12.9896C29.5848 12.9896 30.1648 12.5962 30.4181 11.8096C30.5248 11.4362 30.5781 10.9696 30.5781 10.4096C30.5781 8.2229 29.9315 7.12957 28.6381 7.12957ZM35.9845 11.8896L36.0045 13.9496C36.0045 14.1896 35.8912 14.4096 35.6645 14.6096C35.4512 14.8096 35.2379 14.9096 35.0245 14.9096C34.7179 14.9096 34.5245 14.6696 34.4445 14.1896C34.4312 14.0829 34.3779 13.1096 34.2845 11.2696C34.1912 9.41624 34.0112 7.9629 33.7445 6.90957C33.6245 6.4029 33.5645 6.1029 33.5645 6.00957C33.5645 5.56957 33.8312 5.34957 34.3645 5.34957C34.5912 5.34957 34.7712 5.43624 34.9045 5.60957C35.0379 5.7829 35.1179 5.9629 35.1445 6.14957C35.1845 6.3229 35.2179 6.5629 35.2445 6.86957C35.2712 7.17624 35.2912 7.36957 35.3045 7.44957C35.5845 6.7829 36.0045 6.2829 36.5645 5.94957C37.1245 5.61624 37.7379 5.44957 38.4045 5.44957C39.4979 5.44957 40.0445 5.72957 40.0445 6.28957C40.0445 6.56957 39.9445 6.79624 39.7445 6.96957C39.5579 7.12957 39.3379 7.20957 39.0845 7.20957C37.9512 7.20957 37.1512 7.56957 36.6845 8.28957C36.2179 9.00957 35.9845 10.2096 35.9845 11.8896ZM41.5998 5.46957L42.5998 5.48957C42.8265 5.48957 42.9532 5.4829 42.9798 5.46957V1.36957C42.9932 1.1429 43.1065 0.94957 43.3198 0.78957C43.5332 0.629569 43.7332 0.549569 43.9198 0.549569C44.1065 0.549569 44.2532 0.609569 44.3598 0.729569C44.4798 0.849569 44.5332 1.03624 44.5198 1.28957C44.5065 1.5429 44.4998 2.92957 44.4998 5.44957L46.8398 5.36957C47.2398 5.36957 47.4398 5.6029 47.4398 6.06957C47.4398 6.41624 47.3332 6.67624 47.1198 6.84957C46.9198 7.0229 46.6998 7.11624 46.4598 7.12957C46.2332 7.1429 46.0065 7.14957 45.7798 7.14957L44.5598 7.12957C44.5598 7.67624 44.6132 8.75624 44.7198 10.3696C44.8398 11.9829 44.9332 13.0296 44.9998 13.5096C45.0665 13.9762 45.0798 14.2829 45.0398 14.4296C44.9998 14.5629 44.9265 14.6562 44.8198 14.7096C44.6465 14.7896 44.4132 14.8296 44.1198 14.8296C43.8265 14.8296 43.6532 14.6696 43.5998 14.3496C43.3332 12.6029 43.1532 10.2029 43.0598 7.14957C42.9398 7.1629 42.4798 7.16957 41.6798 7.16957C40.8798 7.16957 40.4798 6.93624 40.4798 6.46957C40.4798 5.8029 40.8532 5.46957 41.5998 5.46957Z" fill="white"/>
<path d="M55.14 4.76C55.3133 4.76 55.48 4.82 55.64 4.94C55.8133 5.06 55.9 5.19333 55.9 5.34C55.9 5.72667 55.3333 7.82 54.2 11.62C53.0667 15.42 52.2267 18.0867 51.68 19.62C51.56 19.98 51.3733 20.16 51.12 20.16C50.8667 20.16 50.6667 20.0667 50.52 19.88C50.3733 19.7067 50.3 19.4467 50.3 19.1C50.3 18.7533 50.52 17.92 50.96 16.6C51.4133 15.2933 51.6867 14.46 51.78 14.1C51.4467 13.54 50.32 10.74 48.4 5.7C48.3733 5.63333 48.36 5.54667 48.36 5.44C48.36 5.33333 48.44 5.19333 48.6 5.02C48.76 4.84667 48.98 4.76 49.26 4.76C49.54 4.76 49.7667 4.9 49.94 5.18C50.1267 5.66 50.4333 6.5 50.86 7.7C51.2867 8.88667 51.6133 9.74667 51.84 10.28C52.08 10.8133 52.3067 11.3667 52.52 11.94C52.7067 11.3133 53.0267 10.1 53.48 8.3C53.9333 6.48667 54.1933 5.45333 54.26 5.2C54.3133 4.90667 54.6067 4.76 55.14 4.76Z" fill="#3B82F6"/>
<path d="M0.133394 21.2347C0.204286 21.2774 0.296815 21.2997 0.394407 21.3134C0.834031 21.3856 0.963387 21.4218 1.79568 21.5228C1.65758 21.5308 1.53191 21.5346 1.40117 21.6055C1.33642 21.643 1.29267 21.6911 1.27566 21.7434C1.25865 21.7958 1.26919 21.8499 1.30588 21.8986C1.34409 21.9711 1.45917 22.0119 1.55032 22.061C2.05531 22.3091 3.28764 22.3977 4.20832 22.5067C5.51201 22.6597 6.81661 22.816 8.13825 22.9057C9.209 23.2174 11.8334 23.2901 12.9143 23.3191C14.5034 23.3779 16.0943 23.4093 17.6857 23.4201C23.2577 23.5908 28.8457 23.4337 34.4227 23.4421C46.9426 23.019 39.5666 23.2504 50.7298 22.6944C52.8603 22.6358 54.9898 22.5644 57.1152 22.4568C57.6856 22.4267 58.5777 22.3923 58.7117 22.3558C58.8645 22.3247 58.9658 22.2393 58.9888 22.1472C64.6731 21.9381 64.5649 21.9545 64.6717 21.9217C64.883 21.8785 64.9985 21.73 64.9382 21.6049C64.9106 21.5485 64.8525 21.4989 64.7725 21.4634C64.6925 21.4279 64.595 21.4084 64.4944 21.4079C62.3359 21.4081 62.9482 21.3332 59.7502 21.5007L60.2538 21.4505C60.3454 21.4301 60.4416 21.4057 60.4927 21.3544C60.6856 21.2277 60.5912 20.9791 60.2331 20.931C60.0775 20.8604 59.9375 20.8774 59.5826 20.8744C59.3727 20.8556 59.1623 20.8384 58.951 20.8258C60.5456 20.6824 61.0911 20.6102 61.5285 20.4953C61.6403 20.4655 61.7416 20.4244 61.848 20.3887C62.5131 20.2005 62.0017 19.7181 61.4714 19.8958C61.3466 19.9342 61.232 19.9831 61.1059 20.0199C60.5986 20.1318 60.0549 20.1723 59.5242 20.2306C57.8435 20.3979 56.5223 20.4848 54.6782 20.5861C52.8382 20.6784 50.9982 20.7786 49.1536 20.8304C43.9568 21.0089 38.755 21.1182 33.5518 21.2046C27.1337 21.3195 30.224 21.2782 22.5616 21.3074C15.5589 21.308 17.7179 21.33 12.9267 21.2231C11.7832 21.199 11.3956 21.1719 9.89813 21.0988C9.10634 21.05 7.90531 20.9096 6.81523 20.85C6.62143 20.8457 6.41565 20.8127 6.23336 20.8599C6.15863 20.8765 6.09331 20.9049 6.04476 20.9419C5.9962 20.979 5.96634 21.0232 5.95854 21.0696L5.95716 21.0766C2.80106 20.8599 1.95358 20.843 0.458854 20.7764C0.397322 20.7749 0.336186 20.7828 0.281623 20.7995C0.206833 20.816 0.141458 20.8444 0.0928915 20.8815C0.0443247 20.9185 0.0145035 20.9628 0.00680039 21.0092C-0.0203597 21.0916 0.0362622 21.1743 0.133394 21.2347Z" fill="#3B82F6"/>
</svg>
